HIERARCHY
ROOT SpineBase
{
  OFFSET 0.000000 0.000000 0.000000
  CHANNELS 6 Xposition Yposition Zposition Zrotation Xrotation Yrotation
  JOINT SpineMid
  {
    OFFSET -0.000000 30.661923 0.000000
    CHANNELS 3 Zrotation Xrotation Yrotation
    JOINT SpineShoulder
    {
      OFFSET -0.814482 22.746242 -0.637211
      CHANNELS 3 Zrotation Xrotation Yrotation
      JOINT Neck
      {
        OFFSET -0.324430 7.551054 -0.576542
        CHANNELS 3 Zrotation Xrotation Yrotation
        JOINT Head
        {
          OFFSET -0.866783 12.134868 1.638771
          CHANNELS 3 Zrotation Xrotation Yrotation
          End Site
          {
            OFFSET 0 0 0
          }
        }
      }
      JOINT ShoulderLeft
      {
        OFFSET -15.506211 -2.322626 1.362608
        CHANNELS 3 Zrotation Xrotation Yrotation
        JOINT ElbowLeft
        {
          OFFSET -1.959001 -30.175580 2.143838
          CHANNELS 3 Zrotation Xrotation Yrotation
          JOINT WristLeft
          {
            OFFSET -4.273004 -22.588679 -2.370027
            CHANNELS 3 Zrotation Xrotation Yrotation
            JOINT HandLeft
            {
              OFFSET 2.473320 -2.399201 0.246252
              CHANNELS 3 Zrotation Xrotation Yrotation
              JOINT HandTipLeft
              {
                OFFSET -0.438741 -6.824297 -2.656953
                CHANNELS 3 Zrotation Xrotation Yrotation
                End Site
                {
                  OFFSET 0 0 0
                }
              }
              JOINT ThumbLeft
              {
                OFFSET 3.330450 -0.139388 -2.938312
                CHANNELS 3 Zrotation Xrotation Yrotation
                End Site
                {
                  OFFSET 0 0 0
                }
              }
            }
          }
        }
      }
      JOINT ShoulderRight
      {
        OFFSET 13.990546 -1.799356 -4.954942
        CHANNELS 3 Zrotation Xrotation Yrotation
        JOINT ElbowRight
        {
          OFFSET 4.523231 -25.627586 -0.308662
          CHANNELS 3 Zrotation Xrotation Yrotation
          JOINT WristRight
          {
            OFFSET 1.468270 -22.302263 -7.801230
            CHANNELS 3 Zrotation Xrotation Yrotation
            JOINT HandRight
            {
              OFFSET -2.296050 -2.310643 -0.737904
              CHANNELS 3 Zrotation Xrotation Yrotation
              JOINT HandTipRight
              {
                OFFSET 0.150527 -5.852018 -0.549486
                CHANNELS 3 Zrotation Xrotation Yrotation
                End Site
                {
                  OFFSET 0 0 0
                }
              }
              JOINT ThumbRight
              {
                OFFSET -3.213617 2.027910 -0.299039
                CHANNELS 3 Zrotation Xrotation Yrotation
                End Site
                {
                  OFFSET 0 0 0
                }
              }
            }
          }
        }
      }
    }
  }
  JOINT HipLeft
  {
    OFFSET -6.564009 0.977897 -2.019329
    CHANNELS 3 Zrotation Xrotation Yrotation
    JOINT KneeLeft
    {
      OFFSET -1.590222 -25.566141 -3.574957
      CHANNELS 3 Zrotation Xrotation Yrotation
      JOINT AnkleLeft
      {
        OFFSET 9.382206 -23.526894 -2.121720
        CHANNELS 3 Zrotation Xrotation Yrotation
        JOINT FootLeft
        {
          OFFSET 0.321515 -4.875027 -9.918859
          CHANNELS 3 Zrotation Xrotation Yrotation
          End Site
          {
            OFFSET 0 0 0
          }
        }
      }
    }
  }
  JOINT HipRight
  {
    OFFSET 6.073900 1.572937 -4.687121
    CHANNELS 3 Zrotation Xrotation Yrotation
    JOINT KneeRight
    {
      OFFSET 5.208623 -22.883853 -2.442818
      CHANNELS 3 Zrotation Xrotation Yrotation
      JOINT AnkleRight
      {
        OFFSET 4.175816 -27.426986 0.894871
        CHANNELS 3 Zrotation Xrotation Yrotation
        JOINT FootRight
        {
          OFFSET 2.470070 0.099730 -4.508334
          CHANNELS 3 Zrotation Xrotation Yrotation
          End Site
          {
            OFFSET 0 0 0
          }
        }
      }
    }
  }
}
MOTION
Frames: 5
Frame Time: 0.033333
23.071550 54.785035 321.693177 0.000000 0.000000 11.919819 -0.000000 -0.000000 -11.919819 -0.000000 0.000000 0.000000 -0.000000 0.000000 0.000000 0.000000 0.000000 0.000000 -0.000000 0.000000 0.000000 -0.000000 0.000000 0.000000 -0.000000 0.000000 0.000000 -0.000000 0.000000 0.000000 0.000000 0.000000 0.000000 0.000000 0.000000 0.000000 -0.000000 0.000000 0.000000 -0.000000 0.000000 0.000000 -0.000000 0.000000 0.000000 -0.000000 0.000000 0.000000 0.000000 0.000000 0.000000 0.000000 0.000000 0.000000 -0.000000 -0.000000 -11.919819 -0.000000 0.000000 0.000000 -0.000000 0.000000 0.000000 0.000000 0.000000 0.000000 -0.000000 -0.000000 -11.919819 -0.000000 0.000000 0.000000 -0.000000 0.000000 0.000000 0.000000 0.000000 0.000000
22.589954 54.710274 321.789327 -0.325901 -0.108862 13.091776 0.342089 0.032211 -13.092182 -0.000000 0.000000 0.000000 -0.000000 0.000000 0.000000 0.000000 0.000000 0.000000 -0.454204 -2.253297 0.104928 -0.877000 -0.215352 0.507935 -19.479358 8.395108 6.457209 14.376407 -0.976385 -2.175864 0.000000 0.000000 0.000000 0.000000 0.000000 0.000000 -0.000000 0.000000 0.000000 -1.050620 -0.107625 0.359774 3.941827 -3.350958 2.295134 -2.755396 3.560854 -2.489133 0.000000 0.000000 0.000000 0.000000 0.000000 0.000000 0.202838 -1.331441 -13.033306 3.297416 5.447792 1.038669 2.579982 2.512732 -11.779424 0.000000 0.000000 0.000000 0.852032 1.188226 -12.840505 -0.240358 -1.240408 -0.259709 -3.981805 -22.342320 34.141549 0.000000 0.000000 0.000000
22.180223 54.638650 321.874542 -0.601121 -0.205223 14.161588 -0.562422 0.132908 -14.201726 1.178819 0.214779 0.038493 -0.000000 0.000000 0.000000 0.000000 0.000000 0.000000 -0.836724 -4.190230 0.181536 -1.418956 -0.360057 0.931891 -32.730615 12.544597 12.504556 23.700878 -1.966656 -2.335106 0.000000 0.000000 0.000000 0.000000 0.000000 0.000000 -0.824393 1.270045 0.243513 -1.191460 -1.539697 0.411385 6.997941 -5.593726 3.955426 -5.246761 5.079525 -4.077762 0.000000 0.000000 0.000000 0.000000 0.000000 0.000000 0.291460 -2.446764 -14.053010 5.651001 9.612036 1.528567 7.448697 4.741127 -23.413292 0.000000 0.000000 0.000000 1.613014 2.190310 -13.702523 -0.506368 -0.865272 -0.272718 0.949763 -36.750983 57.070276 0.000000 0.000000 0.000000
21.842355 54.570164 321.948822 -0.825392 -0.288993 15.129105 -0.786083 0.195186 -15.184709 0.499109 0.178650 -0.035027 1.135677 0.129399 0.090961 0.000000 0.000000 0.000000 -0.007184 -5.697764 0.330992 -1.643844 -0.426739 1.257830 -41.201273 14.441047 16.819671 29.193196 -2.582632 -1.769779 0.000000 0.000000 0.000000 0.000000 0.000000 0.000000 -0.066970 1.969133 0.453110 -1.691018 -2.330661 0.549883 9.236899 -6.945966 5.006036 -6.856549 6.832334 -5.028136 0.000000 0.000000 0.000000 0.000000 0.000000 0.000000 0.280292 -3.381914 -14.977482 7.208787 12.643135 1.712222 12.827089 5.893430 -33.227290 0.000000 0.000000 0.000000 2.272366 3.021426 -14.500600 -0.759444 -0.713316 -0.315795 5.288818 -42.420289 68.305653 0.000000 0.000000 0.000000
21.576351 54.504815 322.012166 -0.998532 -0.360107 15.994352 -0.973180 0.250398 -16.062480 0.564816 0.212506 -0.046619 1.437592 0.178663 0.115156 0.000000 0.000000 0.000000 0.047570 -6.996789 0.397305 -1.568459 -0.412824 1.476687 -46.824165 15.288071 19.621883 32.530878 -3.155947 -1.048505 0.000000 0.000000 0.000000 0.000000 0.000000 0.000000 -0.111383 2.537603 0.588440 -2.132693 -3.125440 0.649867 10.734014 -7.563829 5.496569 -7.986356 8.208558 -5.461016 0.000000 0.000000 0.000000 0.000000 0.000000 0.000000 0.179246 -4.163266 -15.805144 8.059615 14.680542 1.738977 17.462800 6.283108 -40.411320 0.000000 0.000000 0.000000 2.820863 3.694809 -15.230450 -1.013185 -0.171614 -0.294493 7.428387 -45.215066 72.902342 0.000000 0.000000 0.000000
